<svg width="32" height="33" viewBox="0 0 32 33" fill="none" xmlns="http://www.w3.org/2000/svg">
<g clip-path="url(#clip0_19_220)">
<path d="M15.314 12.9939C15.534 12.3339 16.466 12.3339 16.686 12.9939L17.976 16.8679C18.2599 17.7195 18.7383 18.4933 19.3733 19.1279C20.0082 19.7625 20.7822 20.2405 21.634 20.5239L25.506 21.8139C26.166 22.0339 26.166 22.9659 25.506 23.1859L21.632 24.4759C20.7804 24.7599 20.0066 25.2383 19.372 25.8732C18.7375 26.5082 18.2595 27.2822 17.976 28.1339L16.686 32.0059C16.6386 32.1505 16.5467 32.2763 16.4235 32.3655C16.3003 32.4548 16.1521 32.5028 16 32.5028C15.8479 32.5028 15.6997 32.4548 15.5765 32.3655C15.4533 32.2763 15.3614 32.1505 15.314 32.0059L14.024 28.1319C13.7403 27.2806 13.2622 26.5069 12.6276 25.8724C11.993 25.2378 11.2194 24.7597 10.368 24.4759L6.494 23.1859C6.34948 23.1385 6.22363 23.0466 6.1344 22.9235C6.04518 22.8003 5.99714 22.652 5.99714 22.4999C5.99714 22.3478 6.04518 22.1996 6.1344 22.0764C6.22363 21.9532 6.34948 21.8614 6.494 21.8139L10.368 20.5239C11.2194 20.2402 11.993 19.7621 12.6276 19.1275C13.2622 18.4929 13.7403 17.7193 14.024 16.8679L15.314 12.9939ZM7.588 2.79594C7.61668 2.70932 7.67193 2.63395 7.74589 2.58053C7.81985 2.52711 7.90877 2.49836 8 2.49836C8.09124 2.49836 8.18015 2.52711 8.25412 2.58053C8.32808 2.63395 8.38332 2.70932 8.412 2.79594L9.186 5.11994C9.532 6.15594 10.344 6.96794 11.38 7.31394L13.704 8.08794C13.7906 8.11662 13.866 8.17186 13.9194 8.24582C13.9728 8.31978 14.0016 8.4087 14.0016 8.49994C14.0016 8.59117 13.9728 8.68009 13.9194 8.75405C13.866 8.82801 13.7906 8.88326 13.704 8.91194L11.38 9.68594C10.8691 9.85617 10.4048 10.1431 10.024 10.5239C9.64313 10.9047 9.35624 11.369 9.186 11.8799L8.412 14.2039C8.38332 14.2905 8.32808 14.3659 8.25412 14.4193C8.18015 14.4728 8.09124 14.5015 8 14.5015C7.90877 14.5015 7.81985 14.4728 7.74589 14.4193C7.67193 14.3659 7.61668 14.2905 7.588 14.2039L6.814 11.8799C6.64377 11.369 6.35687 10.9047 5.97605 10.5239C5.59523 10.1431 5.13095 9.85617 4.62 9.68594L2.296 8.91194C2.20939 8.88326 2.13402 8.82801 2.0806 8.75405C2.02718 8.68009 1.99843 8.59117 1.99843 8.49994C1.99843 8.4087 2.02718 8.31978 2.0806 8.24582C2.13402 8.17186 2.20939 8.11662 2.296 8.08794L4.62 7.31394C5.13095 7.1437 5.59523 6.85681 5.97605 6.47599C6.35687 6.09517 6.64377 5.63089 6.814 5.11994L7.588 2.79594ZM21.726 0.697935C21.7457 0.640988 21.7827 0.591607 21.8318 0.556658C21.881 0.52171 21.9397 0.50293 22 0.50293C22.0603 0.50293 22.119 0.52171 22.1682 0.556658C22.2173 0.591607 22.2543 0.640988 22.274 0.697935L22.79 2.24594C23.02 2.93794 23.562 3.47994 24.254 3.70994L25.802 4.22594C25.8589 4.24568 25.9083 4.28268 25.9433 4.33178C25.9782 4.38089 25.997 4.43966 25.997 4.49994C25.997 4.56021 25.9782 4.61898 25.9433 4.66809C25.9083 4.7172 25.8589 4.75419 25.802 4.77394L24.254 5.28994C23.913 5.40338 23.6031 5.59477 23.349 5.8489C23.0948 6.10303 22.9034 6.41291 22.79 6.75394L22.274 8.30194C22.2543 8.35888 22.2173 8.40826 22.1682 8.44321C22.119 8.47816 22.0603 8.49694 22 8.49694C21.9397 8.49694 21.881 8.47816 21.8318 8.44321C21.7827 8.40826 21.7457 8.35888 21.726 8.30194L21.21 6.75394C21.0966 6.41291 20.9052 6.10303 20.651 5.8489C20.3969 5.59477 20.087 5.40338 19.746 5.28994L18.2 4.77394C18.1431 4.75419 18.0937 4.7172 18.0587 4.66809C18.0238 4.61898 18.005 4.56021 18.005 4.49994C18.005 4.43966 18.0238 4.38089 18.0587 4.33178C18.0937 4.28268 18.1431 4.24568 18.2 4.22594L19.748 3.70994C20.44 3.47994 20.982 2.93794 21.212 2.24594L21.726 0.699935V0.697935Z" fill="#F54900"/>
</g>
<defs>
<clipPath id="clip0_19_220">
<rect width="32" height="32" fill="white" transform="translate(0 0.5)"/>
</clipPath>
</defs>
</svg>
